#Comment line ignore any data following # character 
#Hierarchical Translation and Rotation (.htr) file 
[Header]	
#Header keywords are followed by a single value 
FileType HTR		#Single word string
DataType HTRS		#Translation followed by rotation and scale data
FileVersion 1		#integer
NumSegments 64		#integer
NumFrames 3		#integer
DataFrameRate 30		#integer, data frame rate in this file
EulerRotationOrder ZYX
CalibrationUnits mm
RotationUnits Degrees
GlobalAxisofGravity Y
BoneLengthAxis Y
ScaleFactor 1.00
[SegmentNames&Hierarchy]
#CHILD	PARENT
Pinger_Root GLOBAL
Pelvis Pinger_Root
L_Hip Pelvis
R_Hip Pelvis
Rear_Leg01 Pelvis
Spine1 Pelvis
L_Leg01 L_Hip
L_Leg02 L_Leg01
L_Leg03 L_Leg02
L_Foot L_Leg03
L_Toe1_01 L_Foot
L_Toe2_01 L_Foot
L_Toe3_01 L_Foot
planeAlignerLeft L_Foot
L_Toe1_02 L_Toe1_01
L_Toe1_03 L_Toe1_02
L_Toe2_02 L_Toe2_01
L_Toe2_03 L_Toe2_02
L_Toe3_02 L_Toe3_01
L_Toe3_03 L_Toe3_02
planeLockWeightLeft planeAlignerLeft
R_Leg01 R_Hip
R_Leg02 R_Leg01
R_Leg03 R_Leg02
R_Foot R_Leg03
planeAlignerRight R_Foot
R_Toe1_01 R_Foot
R_Toe2_01 R_Foot
R_Toe3_01 R_Foot
planeLockWeightRight planeAlignerRight
R_Toe1_02 R_Toe1_01
R_Toe1_03 R_Toe1_02
R_Toe2_02 R_Toe2_01
R_Toe2_03 R_Toe2_02
R_Toe3_02 R_Toe3_01
R_Toe3_03 R_Toe3_02
Rear_Leg02 Rear_Leg01
Rear_Leg03 Rear_Leg02
Rear_Leg04 Rear_Leg03
Rear_Foot Rear_Leg04
planeAlignerCenter Rear_Foot
Rear_Toe1_01 Rear_Foot
Rear_Toe2_01 Rear_Foot
Rear_Toe3_01 Rear_Foot
planeLockWeightCenter planeAlignerCenter
Rear_Toe1_02 Rear_Toe1_01
Rear_Toe1_03 Rear_Toe1_02
Rear_Toe2_02 Rear_Toe2_01
Rear_Toe2_03 Rear_Toe2_02
Rear_Toe3_02 Rear_Toe3_01
Rear_Toe3_03 Rear_Toe3_02
Back_Bone Spine1
Head Spine1
Motor_Bone Back_Bone
Ping_Mechanism Back_Bone
BN_LookIK Head
bottomMouth Head
L_Mouth01 Head
L_mouthFront Head
mouthGun Head
R_Mouth01 Head
R_mouthFront Head
TopMouth Head
weapon_bone Head
[BasePosition]
#SegmentName Tx, Ty, Tz, Rx, Ry, Rz, BoneLength
Pinger_Root 0.000000 0.000000 0.000000 -90.000000 0.000000 0.000000 10.000000 
Pelvis 0.000000 0.000000 0.000000 0.000000 0.000000 0.000000 10.000000 
L_Hip 0.000000 0.000000 0.000000 0.000000 0.000000 0.000000 10.000000 
R_Hip 0.000000 0.000000 0.000000 0.000000 0.000000 0.000000 10.000000 
Rear_Leg01 0.000000 0.000000 0.000000 0.000000 0.000000 0.000000 10.000000 
Spine1 0.000000 0.000000 0.000000 0.000000 0.000000 0.000000 10.000000 
L_Leg01 0.000000 0.000000 0.000000 0.000000 0.000000 0.000000 10.000000 
L_Leg02 0.000000 0.000000 0.000000 0.000000 0.000000 0.000000 10.000000 
L_Leg03 0.000000 0.000000 0.000000 0.000000 0.000000 0.000000 10.000000 
L_Foot 0.000000 0.000000 0.000000 0.000000 0.000000 0.000000 10.000000 
L_Toe1_01 0.000000 0.000000 0.000000 0.000000 0.000000 0.000000 10.000000 
L_Toe2_01 0.000000 0.000000 0.000000 0.000000 0.000000 0.000000 10.000000 
L_Toe3_01 0.000000 0.000000 0.000000 0.000000 0.000000 0.000000 10.000000 
planeAlignerLeft 0.000000 0.000000 0.000000 0.000000 0.000000 0.000000 10.000000 
L_Toe1_02 0.000000 0.000000 0.000000 0.000000 0.000000 0.000000 10.000000 
L_Toe1_03 0.000000 0.000000 0.000000 0.000000 0.000000 0.000000 10.000000 
L_Toe2_02 0.000000 0.000000 0.000000 0.000000 0.000000 0.000000 10.000000 
L_Toe2_03 0.000000 0.000000 0.000000 0.000000 0.000000 0.000000 10.000000 
L_Toe3_02 0.000000 0.000000 0.000000 0.000000 0.000000 0.000000 10.000000 
L_Toe3_03 0.000000 0.000000 0.000000 0.000000 0.000000 0.000000 10.000000 
planeLockWeightLeft 0.000000 0.000000 0.000000 0.000000 0.000000 0.000000 10.000000 
R_Leg01 0.000000 0.000000 0.000000 0.000000 0.000000 0.000000 10.000000 
R_Leg02 0.000000 0.000000 0.000000 0.000000 0.000000 0.000000 10.000000 
R_Leg03 0.000000 0.000000 0.000000 0.000000 0.000000 0.000000 10.000000 
R_Foot 0.000000 0.000000 0.000000 0.000000 0.000000 0.000000 10.000000 
planeAlignerRight 0.000000 0.000000 0.000000 0.000000 0.000000 0.000000 10.000000 
R_Toe1_01 0.000000 0.000000 0.000000 0.000000 0.000000 0.000000 10.000000 
R_Toe2_01 0.000000 0.000000 0.000000 0.000000 0.000000 0.000000 10.000000 
R_Toe3_01 0.000000 0.000000 0.000000 0.000000 0.000000 0.000000 10.000000 
planeLockWeightRight 0.000000 0.000000 0.000000 0.000000 0.000000 0.000000 10.000000 
R_Toe1_02 0.000000 0.000000 0.000000 0.000000 0.000000 0.000000 10.000000 
R_Toe1_03 0.000000 0.000000 0.000000 0.000000 0.000000 0.000000 10.000000 
R_Toe2_02 0.000000 0.000000 0.000000 0.000000 0.000000 0.000000 10.000000 
R_Toe2_03 0.000000 0.000000 0.000000 0.000000 0.000000 0.000000 10.000000 
R_Toe3_02 0.000000 0.000000 0.000000 0.000000 0.000000 0.000000 10.000000 
R_Toe3_03 0.000000 0.000000 0.000000 0.000000 0.000000 0.000000 10.000000 
Rear_Leg02 0.000000 0.000000 0.000000 0.000000 0.000000 0.000000 10.000000 
Rear_Leg03 0.000000 0.000000 0.000000 0.000000 0.000000 0.000000 10.000000 
Rear_Leg04 0.000000 0.000000 0.000000 0.000000 0.000000 0.000000 10.000000 
Rear_Foot 0.000000 0.000000 0.000000 0.000000 0.000000 0.000000 10.000000 
planeAlignerCenter 0.000000 0.000000 0.000000 0.000000 0.000000 0.000000 10.000000 
Rear_Toe1_01 0.000000 0.000000 0.000000 0.000000 0.000000 0.000000 10.000000 
Rear_Toe2_01 0.000000 0.000000 0.000000 0.000000 0.000000 0.000000 10.000000 
Rear_Toe3_01 0.000000 0.000000 0.000000 0.000000 0.000000 0.000000 10.000000 
planeLockWeightCenter 0.000000 0.000000 0.000000 0.000000 0.000000 0.000000 10.000000 
Rear_Toe1_02 0.000000 0.000000 0.000000 0.000000 0.000000 0.000000 10.000000 
Rear_Toe1_03 0.000000 0.000000 0.000000 0.000000 0.000000 0.000000 10.000000 
Rear_Toe2_02 0.000000 0.000000 0.000000 0.000000 0.000000 0.000000 10.000000 
Rear_Toe2_03 0.000000 0.000000 0.000000 0.000000 0.000000 0.000000 10.000000 
Rear_Toe3_02 0.000000 0.000000 0.000000 0.000000 0.000000 0.000000 10.000000 
Rear_Toe3_03 0.000000 0.000000 0.000000 0.000000 0.000000 0.000000 10.000000 
Back_Bone 0.000000 0.000000 0.000000 0.000000 0.000000 0.000000 10.000000 
Head 0.000000 0.000000 0.000000 0.000000 0.000000 0.000000 10.000000 
Motor_Bone 0.000000 0.000000 0.000000 0.000000 0.000000 0.000000 10.000000 
Ping_Mechanism 0.000000 0.000000 0.000000 0.000000 0.000000 0.000000 10.000000 
BN_LookIK 0.000000 0.000000 0.000000 0.000000 0.000000 0.000000 10.000000 
bottomMouth 0.000000 0.000000 0.000000 0.000000 0.000000 0.000000 10.000000 
L_Mouth01 0.000000 0.000000 0.000000 0.000000 0.000000 0.000000 10.000000 
L_mouthFront 0.000000 0.000000 0.000000 0.000000 0.000000 0.000000 10.000000 
mouthGun 0.000000 0.000000 0.000000 0.000000 0.000000 0.000000 10.000000 
R_Mouth01 0.000000 0.000000 0.000000 0.000000 0.000000 0.000000 10.000000 
R_mouthFront 0.000000 0.000000 0.000000 0.000000 0.000000 0.000000 10.000000 
TopMouth 0.000000 0.000000 0.000000 0.000000 0.000000 0.000000 10.000000 
weapon_bone 0.000000 0.000000 0.000000 0.000000 0.000000 0.000000 10.000000 
#Beginning of Data. Separated by tabs
#Fr	Tx	Ty	Tz	Rx	Ry	Rz	SF
[Pinger_Root]
226 0.000000 0.000000 0.000000 -0.000075 -0.000000 -0.000020 0.000000
227 0.000000 0.000000 0.000000 -0.000075 -0.000000 -0.000020 0.000000
228 0.000000 0.000000 0.000000 -0.000075 -0.000000 -0.000020 0.000000
[Pelvis]
226 -8.665104 597.827209 4256.381348 65.344574 -73.889465 -74.308426 4298.168457
227 -12.650676 596.640137 4283.663086 64.645615 -75.046432 -73.536987 4325.033203
228 -16.940102 595.612244 4308.789063 62.288963 -77.700424 -71.035782 4349.793945
[L_Hip]
226 5.766392 125.831482 872.656799 160.158691 -45.484905 122.312202 881.701050
227 5.766392 125.831482 872.656799 160.158691 -45.484905 122.312202 881.701050
228 5.766392 125.831482 872.656799 160.158691 -45.484905 122.312202 881.701050
[R_Hip]
226 5.765438 125.836372 -872.654907 38.071571 49.823372 125.682930 881.699829
227 5.765438 125.836372 -872.654907 38.072250 49.822922 125.683784 881.699829
228 5.765438 125.836372 -872.654907 38.072933 49.822487 125.684662 881.699829
[Rear_Leg01]
226 -192.298416 -925.602966 -0.001907 177.996735 12.944580 -115.471481 945.367432
227 -192.298416 -925.602966 -0.001907 177.664185 12.778413 -117.103455 945.367432
228 -192.298416 -925.602966 -0.001907 176.948700 12.362055 -120.599625 945.367432
[Spine1]
226 290.604584 5.007505 0.000477 13.780463 -11.147520 30.224318 290.647736
227 290.604584 5.007505 0.000477 13.919769 -10.828573 28.912024 290.647736
228 290.604584 5.007505 0.000477 14.182226 -10.181523 26.119846 290.647736
[L_Leg01]
226 761.932007 -0.002384 -0.069261 19.576763 -23.273678 -3.606756 761.932068
227 761.932007 -0.002384 -0.069261 19.083166 -23.355656 -2.964498 761.932068
228 761.932007 -0.002384 -0.069261 17.645884 -23.734631 -0.304648 761.932068
[L_Leg02]
226 1441.140503 -0.000954 -0.000715 1.029496 -0.414371 -138.365692 1441.140503
227 1441.140503 -0.000954 -0.000715 1.050839 -0.413748 -138.190857 1441.140503
228 1441.140503 -0.000954 -0.000715 1.219397 -0.464594 -138.867325 1441.140503
[L_Leg03]
226 1686.963989 -0.000715 -0.000954 0.061464 -0.012308 93.380241 1686.963989
227 1686.963989 -0.000715 -0.000954 0.061396 -0.012646 94.010475 1686.963989
228 1686.963989 -0.000715 -0.000954 0.056092 -0.011367 95.338348 1686.963989
[L_Foot]
226 3041.570068 -30.715107 11.297464 4.112835 13.276832 62.754776 3041.746094
227 3041.570068 -30.715107 11.297464 4.207391 13.270613 62.540356 3041.746094
228 3041.570068 -30.715107 11.297464 4.307648 13.201585 62.154778 3041.746094
[L_Toe1_01]
226 -188.216690 -224.732346 -21.137953 94.589348 -6.710977 -176.460052 293.899567
227 -188.216690 -224.732346 -21.137953 94.535324 -6.817523 -175.797791 293.899567
228 -188.216690 -224.732346 -21.137953 94.480011 -6.923432 -175.135315 293.899567
[L_Toe2_01]
226 200.746536 -219.926590 148.838394 -88.850746 -23.648052 -57.176521 332.896027
227 200.746536 -219.926590 148.838394 -88.524681 -23.600510 -57.995335 332.896027
228 200.746536 -219.926590 148.838394 -88.199516 -23.548710 -58.813488 332.896027
[L_Toe3_01]
226 188.832520 -219.859131 -191.078659 -99.278679 11.997855 -74.255966 347.140900
227 188.832520 -219.859131 -191.078659 -99.314629 11.674067 -75.040184 347.140900
228 188.832520 -219.859131 -191.078659 -99.342407 11.440228 -75.615387 347.140900
[planeAlignerLeft]
226 0.812531 -811.448792 -0.314951 0.000000 -90.000000 -90.001900 811.449280
227 0.812531 -811.448792 -0.314951 0.000000 -90.000000 -90.001900 811.449280
228 0.812531 -811.448792 -0.314951 0.000000 -90.000000 -90.001900 811.449280
[L_Toe1_02]
226 413.761139 0.000477 0.000000 0.001423 -21.091908 0.001423 413.761139
227 413.761139 0.000477 0.000000 0.001422 -21.271406 0.001422 413.761139
228 413.761139 0.000477 0.000000 0.001420 -21.450893 0.001420 413.761139
[L_Toe1_03]
226 464.317322 0.000358 -0.000089 0.035564 86.217316 0.035564 464.317322
227 464.317322 0.000358 -0.000089 0.029828 85.490112 0.029828 464.317322
228 464.317322 0.000358 -0.000089 0.026571 84.936859 0.026571 464.317322
[L_Toe2_02]
226 342.235809 -0.000477 0.000238 0.001180 -78.466087 0.001180 342.235809
227 342.235809 -0.000477 0.000238 0.001180 -78.289703 0.001180 342.235809
228 342.235809 -0.000477 0.000238 0.001180 -78.113266 0.001180 342.235809
[L_Toe2_03]
226 420.210846 -0.000715 0.000000 -179.997635 74.051109 -179.994095 420.210846
227 420.210846 -0.000715 0.000000 -179.997391 74.929710 -179.993866 420.210846
228 420.210846 -0.000715 0.000000 -179.997116 75.808281 -179.993591 420.210846
[L_Toe3_02]
226 329.270111 0.000954 0.000000 0.002177 -82.827805 0.002177 329.270111
227 329.270111 0.000954 0.000000 0.001927 -82.671288 0.001927 329.270111
228 329.270111 0.000954 0.000000 0.001677 -82.514748 0.001677 329.270111
[L_Toe3_03]
226 439.137451 -0.001907 0.000954 179.990356 67.742531 179.997482 439.137451
227 439.137451 -0.001907 0.000954 179.995712 68.682945 -179.998962 439.137451
228 439.137451 -0.001907 0.000954 -179.998535 69.623329 -179.994980 439.137451
[planeLockWeightLeft]
226 -0.000954 0.000238 -0.000305 -0.011826 -0.004376 0.005620 0.001029
227 -0.000954 0.000238 -0.000305 -0.011826 -0.004376 0.005620 0.001029
228 -0.000954 0.000238 -0.000305 -0.011826 -0.004376 0.005620 0.001029
[R_Leg01]
226 761.455627 -0.001907 -0.000358 121.087250 -50.709484 9.117410 761.455688
227 761.455627 -0.001907 -0.000358 122.000145 -50.451389 8.456516 761.455688
228 761.455627 -0.001907 -0.000358 124.588280 -50.576378 6.183464 761.455688
[R_Leg02]
226 1441.140625 0.000000 -0.000238 -1.077111 0.430855 -159.846268 1441.140625
227 1441.140625 0.000000 -0.000238 -1.077551 0.412266 -159.205429 1441.140625
228 1441.140625 0.000000 -0.000238 -1.078207 0.393680 -158.564606 1441.140625
[R_Leg03]
226 1686.963989 0.000954 0.001431 -0.063780 0.012278 93.203400 1686.963989
227 1686.963989 0.000954 0.001431 -0.060118 0.015942 93.712608 1686.963989
228 1686.963989 0.000954 0.001431 -0.054784 0.014608 94.927399 1686.963989
[R_Foot]
226 3041.560059 -30.531288 -11.204481 1.544684 -24.011295 68.879387 3041.734131
227 3041.560059 -30.531288 -11.204481 1.513419 -24.025047 68.715714 3041.734131
228 3041.560059 -30.531288 -11.204481 1.522029 -24.015125 68.317215 3041.734131
[planeAlignerRight]
226 -0.635147 -812.270569 -0.364304 0.000000 -89.960434 -90.005180 812.270874
227 -0.635147 -812.270569 -0.364304 0.000000 -89.960434 -90.005180 812.270874
228 -0.635147 -812.270569 -0.364304 0.000000 -89.960434 -90.005180 812.270874
[R_Toe1_01]
226 -188.383347 -224.864899 21.052242 76.596878 -1.537911 -173.417923 294.101532
227 -188.383347 -224.864899 21.052242 76.550941 -1.292994 -172.509598 294.101532
228 -188.383347 -224.864899 21.052242 76.521988 -1.104793 -171.809418 294.101532
[R_Toe2_01]
226 200.637817 -220.002121 -148.787384 -93.668785 28.720530 -64.571602 332.857574
227 200.637817 -220.002121 -148.787384 -94.109558 28.598053 -65.471588 332.857574
228 200.637817 -220.002121 -148.787384 -94.547531 28.469522 -66.369385 332.857574
[R_Toe3_01]
226 188.606735 -220.092957 191.126343 -74.165291 -8.692277 -81.142387 347.192566
227 188.606735 -220.092957 191.126343 -74.236244 -8.370075 -81.823395 347.192566
228 188.606735 -220.092957 191.126343 -74.310974 -8.048751 -82.504189 347.192566
[planeLockWeightRight]
226 -0.000477 0.000000 0.000000 -0.011823 -0.004379 -0.000027 0.000477
227 -0.000477 0.000000 0.000000 -0.011823 -0.004379 -0.000027 0.000477
228 -0.000477 0.000000 0.000000 -0.011823 -0.004379 -0.000027 0.000477
[R_Toe1_02]
226 413.762085 0.000477 -0.000119 0.001443 -18.839706 0.001443 413.762085
227 413.762085 0.000477 -0.000119 0.001441 -19.104692 0.001441 413.762085
228 413.762085 0.000477 -0.000119 0.001438 -19.369671 0.001438 413.762085
[R_Toe1_03]
226 464.317810 0.000000 0.001088 -179.986084 85.794579 -179.982590 464.317810
227 464.317810 0.000000 0.001088 -179.981491 86.748810 -179.977982 464.317810
228 464.317810 0.000000 0.001088 -179.975479 87.491653 -179.971985 464.317810
[R_Toe2_02]
226 342.234741 -0.000954 0.000238 -0.002341 -75.718109 -0.002341 342.234741
227 342.234741 -0.000954 0.000238 -0.002342 -75.345238 -0.002342 342.234741
228 342.234741 -0.000954 0.000238 -0.002343 -74.972351 -0.002343 342.234741
[R_Toe2_03]
226 420.210846 0.000715 -0.000268 -179.986145 84.557274 -179.989655 420.210846
227 420.210846 0.000715 -0.000268 -179.981934 85.962013 -179.985428 420.210846
228 420.210846 0.000715 -0.000268 -179.975876 87.057022 -179.979370 420.210846
[R_Toe3_02]
226 329.270355 -0.000477 -0.000954 0.001180 -78.503540 0.001180 329.270355
227 329.270355 -0.000477 -0.000954 0.001180 -78.073982 0.001180 329.270355
228 329.270355 -0.000477 -0.000954 0.001181 -77.644592 0.001181 329.270355
[R_Toe3_03]
226 439.137939 0.000238 0.001431 -179.986191 85.766220 -179.982697 439.137939
227 439.137939 0.000238 0.001431 -179.979065 87.096733 -179.975571 439.137939
228 439.137939 0.000238 0.001431 -179.959869 88.427040 -179.956375 439.137939
[Rear_Leg02]
226 1162.777710 -0.029802 0.005960 1.952478 -2.292292 -122.279366 1162.777710
227 1162.777710 -0.029802 0.005960 1.916496 -2.327930 -121.305168 1162.777710
228 1162.777710 -0.029802 0.005960 1.854431 -2.377788 -119.797615 1162.777710
[Rear_Leg03]
226 607.192505 -0.013351 -0.073195 0.010220 -0.005632 74.069862 607.192505
227 607.192505 -0.013351 -0.073195 0.010236 -0.005602 73.739189 607.192505
228 607.192505 -0.013351 -0.073195 0.010252 -0.005572 73.408432 607.192505
[Rear_Leg04]
226 995.874512 -0.020504 -0.011921 -0.045317 -0.017740 80.659828 995.874573
227 995.874512 -0.020504 -0.011921 -0.045202 -0.018031 79.922333 995.874573
228 995.874512 -0.020504 -0.011921 -0.043987 -0.017186 78.840347 995.874573
[Rear_Foot]
226 3096.176270 -0.067472 -0.041425 -113.961250 87.076843 70.733490 3096.176270
227 3096.176270 -0.067472 -0.041425 -113.006012 87.087921 71.279152 3096.176270
228 3096.176270 -0.067472 -0.041425 -112.136703 87.084961 71.467888 3096.176270
[planeAlignerCenter]
226 0.350077 0.966311 -838.790894 0.000009 0.000003 -179.999985 838.791565
227 0.350077 0.966311 -838.790894 0.000009 0.000003 -179.999985 838.791565
228 0.350077 0.966311 -838.790894 0.000009 0.000003 -179.999985 838.791565
[Rear_Toe1_01]
226 0.653352 83.966492 -371.173737 0.343279 37.260540 90.445976 380.553192
227 0.653352 83.966492 -371.173737 0.348098 37.877804 90.449051 380.553192
228 0.653352 83.966492 -371.173737 0.353006 38.494999 90.452217 380.553192
[Rear_Toe2_01]
226 178.200760 -294.826019 -362.060547 -5.038263 36.760406 -62.653919 499.765686
227 178.200760 -294.826019 -362.060547 -4.972709 37.427662 -62.716675 499.765686
228 178.200760 -294.826019 -362.060547 -4.907478 38.095097 -62.779030 499.765686
[Rear_Toe3_01]
226 -153.359680 -308.780914 -362.060852 2.241603 36.234535 -114.373436 499.952881
227 -153.359680 -308.780914 -362.060852 2.210992 36.876961 -114.322723 499.952881
228 -153.359680 -308.780914 -362.060852 2.180834 37.519539 -114.271996 499.952881
[planeLockWeightCenter]
226 -0.000062 0.000238 0.000000 -0.011814 -0.004373 -0.000015 0.000246
227 -0.000062 0.000238 0.000000 -0.011814 -0.004373 -0.000015 0.000246
228 -0.000062 0.000238 0.000000 -0.011814 -0.004373 -0.000015 0.000246
[Rear_Toe1_02]
226 379.707825 0.194073 0.000477 -0.002029 -33.193455 -0.002029 379.707855
227 379.707825 0.194073 0.000477 -0.001723 -33.230789 -0.001723 379.707855
228 379.707825 0.194073 0.000477 -0.001417 -33.268124 -0.001417 379.707855
[Rear_Toe1_03]
226 500.129700 0.165701 0.000119 -0.001570 84.524422 -0.004196 500.129761
227 500.129700 0.165701 0.000119 0.006371 83.753960 0.004620 500.129761
228 500.129700 0.165701 0.000119 0.012474 82.983345 0.011598 500.129761
[Rear_Toe2_02]
226 340.494507 0.000238 -0.000954 0.001174 -87.104843 0.001174 340.494507
227 340.494507 0.000238 -0.000954 0.001174 -86.803406 0.001174 340.494507
228 340.494507 0.000238 -0.000954 0.001174 -86.501900 0.001174 340.494507
[Rear_Toe2_03]
226 433.103577 0.000000 0.000238 -179.996811 75.512032 -179.999619 433.103546
227 433.103577 0.000000 0.000238 -180.000000 76.283867 179.997910 433.103546
228 433.103577 0.000000 0.000238 179.996490 77.055740 179.995087 433.103546
[Rear_Toe3_02]
226 340.494141 -0.000358 -0.000477 0.001174 -86.215294 0.001174 340.494171
227 340.494141 -0.000358 -0.000477 0.001174 -85.933647 0.001174 340.494171
228 340.494141 -0.000358 -0.000477 0.001174 -85.652061 0.001174 340.494171
[Rear_Toe3_03]
226 433.103577 0.001431 -0.000238 -179.996307 77.889740 -179.992798 433.103546
227 433.103577 0.001431 -0.000238 -179.995956 78.655281 -179.992432 433.103546
228 433.103577 0.001431 -0.000238 -179.995529 79.420883 -179.992020 433.103546
[Back_Bone]
226 1312.175781 -701.934692 0.000954 0.000090 0.002345 -85.606789 1488.125488
227 1312.175781 -701.934692 0.000954 3.888192 -0.003277 -85.607346 1488.125488
228 1312.175781 -701.934692 0.000954 11.106851 0.000357 -85.606140 1488.125488
[Head]
226 1406.159424 809.709290 0.001431 -10.265921 -2.724514 -3.135914 1622.625488
227 1406.159424 809.709290 0.001431 -12.771987 -1.278834 -7.993522 1622.625488
228 1406.159424 809.709290 0.001431 -15.976057 -0.095540 -13.564966 1622.625488
[Motor_Bone]
226 1158.364380 -417.834747 0.000477 -0.000105 0.000046 -105.985291 1231.419434
227 1158.364380 -417.834747 0.000477 -0.000105 0.000046 -105.985291 1231.419434
228 1158.364380 -417.834747 0.000477 -0.000105 0.000046 -105.985291 1231.419434
[Ping_Mechanism]
226 1190.360107 -57.209450 11.321486 0.000103 -0.000053 82.120995 1191.787842
227 1195.164063 -60.080128 9.264916 0.000103 -0.000053 82.120995 1196.709106
228 1206.738647 -66.419930 7.032048 0.000103 -0.000053 82.120995 1208.585571
[BN_LookIK]
226 193.241119 1380.371704 -0.002861 0.000000 89.965736 -31.038179 1393.832153
227 193.241119 1380.371704 -0.002861 0.000000 89.965736 -31.038179 1393.832153
228 193.241119 1380.371704 -0.002861 0.000000 89.965736 -31.038179 1393.832153
[bottomMouth]
226 -435.092926 615.759399 -0.000954 -0.000022 0.000016 73.527184 753.966492
227 -435.092926 615.759399 -0.000954 -0.000022 0.000016 73.527184 753.966492
228 -435.092926 615.759399 -0.000954 -0.000022 0.000016 73.527184 753.966492
[L_Mouth01]
226 554.440979 7.658243 838.222046 150.204178 23.759130 109.605339 1005.027161
227 554.440979 7.658243 838.222046 150.204178 23.759130 109.605339 1005.027161
228 554.440979 7.658243 838.222046 150.204178 23.759130 109.605339 1005.027161
[L_mouthFront]
226 551.629089 934.514771 339.150421 0.000081 2.804060 79.119301 1136.941284
227 551.629089 934.514771 339.150421 0.000081 2.804060 79.119301 1136.941284
228 551.629089 934.514771 339.150421 0.000081 2.804060 79.119301 1136.941284
[mouthGun]
226 55.332661 1627.420898 0.000000 0.000023 0.000009 -11.038128 1628.361328
227 55.332661 1627.420898 0.000000 0.000023 0.000009 -11.038128 1628.361328
228 55.332661 1627.420898 0.000000 0.000023 0.000009 -11.038128 1628.361328
[R_Mouth01]
226 554.442383 7.659197 -838.223938 29.795891 -23.759109 109.605331 1005.029541
227 554.442383 7.659197 -838.223938 29.795891 -23.759109 109.605331 1005.029541
228 554.442383 7.659197 -838.223938 29.795891 -23.759109 109.605331 1005.029541
[R_mouthFront]
226 551.629089 934.514282 -339.151367 0.000029 -2.803930 79.119133 1136.941162
227 551.629089 934.514282 -339.151367 0.000029 -2.803930 79.119133 1136.941162
228 551.629089 934.514282 -339.151367 0.000029 -2.803930 79.119133 1136.941162
[TopMouth]
226 461.269867 -56.106091 -0.008583 -0.000059 -0.000268 92.025169 464.669525
227 461.269867 -56.106091 -0.008583 -0.000059 -0.000268 92.025169 464.669525
228 461.269867 -56.106091 -0.008583 -0.000059 -0.000268 92.025169 464.669525
[weapon_bone]
226 -987.239868 1448.372803 0.001431 0.000000 89.965736 -31.038221 1752.833740
227 -987.239868 1448.372803 0.001431 0.000000 89.965736 -31.038221 1752.833740
228 -987.239868 1448.372803 0.001431 0.000000 89.965736 -31.038221 1752.833740
